<svg xmlns="http://www.w3.org/2000/svg" xmlns:xlink="http://www.w3.org/1999/xlink" width="500" zoomAndPan="magnify" viewBox="0 0 375 374.999991" height="500" preserveAspectRatio="xMidYMid meet" version="1.0"><defs><g/></defs><rect x="-37.5" width="450" fill="#ffffff" y="-37.499999" height="449.999989" fill-opacity="1"/><rect x="-37.5" width="450" fill="#f5f5f1" y="-37.499999" height="449.999989" fill-opacity="1"/><g fill="#000000" fill-opacity="1"><g transform="translate(127.957248, 223.799823)"><g><path d="M 4.953125 -68.03125 L 29.28125 -68.03125 C 35.820312 -68.03125 41.148438 -66.285156 45.265625 -62.796875 C 49.390625 -59.304688 51.453125 -54.316406 51.453125 -47.828125 C 51.453125 -42.828125 50.203125 -38.632812 47.703125 -35.25 C 45.203125 -31.875 41.804688 -29.5 37.515625 -28.125 L 60.9375 0 L 41.234375 0 L 20.453125 -26.890625 L 20.453125 0 L 4.953125 0 Z M 20.453125 -37.859375 L 22.265625 -37.859375 C 23.691406 -37.859375 24.898438 -37.882812 25.890625 -37.9375 C 26.878906 -37.988281 28.003906 -38.175781 29.265625 -38.5 C 30.535156 -38.832031 31.554688 -39.300781 32.328125 -39.90625 C 33.097656 -40.519531 33.753906 -41.398438 34.296875 -42.546875 C 34.847656 -43.703125 35.125 -45.101562 35.125 -46.75 C 35.125 -48.40625 34.847656 -49.8125 34.296875 -50.96875 C 33.753906 -52.125 33.097656 -53.003906 32.328125 -53.609375 C 31.554688 -54.210938 30.535156 -54.675781 29.265625 -55 C 28.003906 -55.332031 26.878906 -55.523438 25.890625 -55.578125 C 24.898438 -55.640625 23.691406 -55.671875 22.265625 -55.671875 L 20.453125 -55.671875 Z M 20.453125 -37.859375 "/></g></g></g><g fill="#000000" fill-opacity="1"><g transform="translate(179.252117, 223.799823)"><g><path d="M 44.28125 -68.03125 L 44.28125 -54.421875 L 20.453125 -54.421875 L 20.453125 -40.90625 L 42.46875 -40.90625 L 42.46875 -27.296875 L 20.453125 -27.296875 L 20.453125 0 L 4.953125 0 L 4.953125 -68.03125 Z M 44.28125 -68.03125 "/></g></g></g><g fill="#000000" fill-opacity="1"><g transform="translate(218.259291, 223.799823)"><g><path d="M 14.34375 -17.640625 C 16.988281 -17.640625 19.226562 -16.71875 21.0625 -14.875 C 22.90625 -13.039062 23.828125 -10.804688 23.828125 -8.171875 C 23.828125 -5.578125 22.90625 -3.359375 21.0625 -1.515625 C 19.226562 0.316406 16.988281 1.234375 14.34375 1.234375 C 11.757812 1.234375 9.546875 0.316406 7.703125 -1.515625 C 5.867188 -3.359375 4.953125 -5.578125 4.953125 -8.171875 C 4.953125 -10.804688 5.867188 -13.039062 7.703125 -14.875 C 9.546875 -16.71875 11.757812 -17.640625 14.34375 -17.640625 Z M 14.34375 -17.640625 "/></g></g></g></svg>