<svg xmlns="http://www.w3.org/2000/svg" xmlns:xlink="http://www.w3.org/1999/xlink" width="500" zoomAndPan="magnify" viewBox="0 0 375 374.999991" height="500" preserveAspectRatio="xMidYMid meet" version="1.0"><defs><g/></defs><g fill="#1a1a27" fill-opacity="1"><g transform="translate(11.011324, 286.51987)"><g><path d="M 14.671875 -201.65625 L 86.78125 -201.65625 C 106.164062 -201.65625 121.96875 -196.484375 134.1875 -186.140625 C 146.414062 -175.796875 152.53125 -161.007812 152.53125 -141.78125 C 152.53125 -126.945312 148.820312 -114.519531 141.40625 -104.5 C 133.988281 -94.476562 123.925781 -87.429688 111.21875 -83.359375 L 180.640625 0 L 122.21875 0 L 60.625 -79.6875 L 60.625 0 L 14.671875 0 Z M 60.625 -112.203125 L 66 -112.203125 C 70.238281 -112.203125 73.820312 -112.28125 76.75 -112.4375 C 79.6875 -112.601562 83.023438 -113.175781 86.765625 -114.15625 C 90.515625 -115.132812 93.53125 -116.519531 95.8125 -118.3125 C 98.09375 -120.101562 100.046875 -122.707031 101.671875 -126.125 C 103.304688 -129.550781 104.125 -133.707031 104.125 -138.59375 C 104.125 -143.476562 103.304688 -147.632812 101.671875 -151.0625 C 100.046875 -154.488281 98.09375 -157.097656 95.8125 -158.890625 C 93.53125 -160.679688 90.515625 -162.0625 86.765625 -163.03125 C 83.023438 -164.007812 79.6875 -164.582031 76.75 -164.75 C 73.820312 -164.914062 70.238281 -165 66 -165 L 60.625 -165 Z M 60.625 -112.203125 "/></g></g></g><g fill="#1a1a27" fill-opacity="1"><g transform="translate(163.052732, 286.51987)"><g><path d="M 131.265625 -201.65625 L 131.265625 -161.328125 L 60.625 -161.328125 L 60.625 -121.234375 L 125.890625 -121.234375 L 125.890625 -80.90625 L 60.625 -80.90625 L 60.625 0 L 14.671875 0 L 14.671875 -201.65625 Z M 131.265625 -201.65625 "/></g></g></g><g fill="#1a1a27" fill-opacity="1"><g transform="translate(278.67259, 286.51987)"><g><path d="M 42.53125 -52.3125 C 50.351562 -52.3125 56.992188 -49.582031 62.453125 -44.125 C 67.910156 -38.664062 70.640625 -32.023438 70.640625 -24.203125 C 70.640625 -16.535156 67.910156 -9.972656 62.453125 -4.515625 C 56.992188 0.941406 50.351562 3.671875 42.53125 3.671875 C 34.875 3.671875 28.316406 0.941406 22.859375 -4.515625 C 17.398438 -9.972656 14.671875 -16.535156 14.671875 -24.203125 C 14.671875 -32.023438 17.398438 -38.664062 22.859375 -44.125 C 28.316406 -49.582031 34.875 -52.3125 42.53125 -52.3125 Z M 42.53125 -52.3125 "/></g></g></g></svg> 