<svg xmlns="http://www.w3.org/2000/svg" xmlns:xlink="http://www.w3.org/1999/xlink" width="500" zoomAndPan="magnify" viewBox="0 0 375 374.999991" height="500" preserveAspectRatio="xMidYMid meet" version="1.0"><defs><g/><clipPath id="001b28e69b"><path d="M 19.519531 210.902344 L 355.519531 210.902344 L 355.519531 243.152344 L 19.519531 243.152344 Z M 19.519531 210.902344 " clip-rule="nonzero"/></clipPath></defs><g clip-path="url(#001b28e69b)"><path fill="#f5f5f1" d="M 26.253906 231.039062 L 19.539062 231.039062 L 19.539062 243.25 L 26.253906 243.25 Z M 35.199219 231.039062 L 30.382812 231.039062 L 30.382812 243.214844 L 35.199219 243.214844 Z M 44.132812 231.039062 L 39.324219 231.039062 L 39.324219 243.1875 L 44.132812 243.1875 Z M 53.789062 231.074219 L 48.261719 231.074219 L 48.261719 243.195312 L 53.789062 243.195312 Z M 62.042969 231.074219 L 57.914062 231.074219 L 57.914062 243.160156 L 62.042969 243.160156 Z M 350.972656 243.230469 L 355.476562 243.230469 L 355.476562 231.015625 L 350.972656 231.015625 Z M 342.035156 243.230469 L 346.84375 243.230469 L 346.84375 231.042969 L 342.035156 231.042969 Z M 333.449219 243.230469 L 337.90625 243.230469 L 337.90625 231.074219 L 333.449219 231.074219 Z M 324.511719 243.230469 L 329.320312 243.230469 L 329.320312 231.101562 L 324.511719 231.101562 Z M 315.570312 243.230469 L 320.378906 243.230469 L 320.378906 231.164062 L 315.570312 231.164062 Z M 306.632812 243.230469 L 311.441406 243.230469 L 311.441406 231.164062 L 306.632812 231.164062 Z M 297.6875 243.230469 L 302.503906 243.230469 L 302.503906 231.164062 L 302.457031 231.164062 L 297.703125 220.089844 Z M 289.433594 243.230469 L 293.5625 243.230469 L 293.5625 210.886719 L 289.433594 217.855469 Z M 279.78125 243.230469 L 285.304688 243.230469 L 285.304688 224.835938 L 279.78125 234.160156 Z M 270.84375 243.230469 L 275.652344 243.230469 L 275.652344 233.921875 L 274.054688 228.949219 L 270.84375 228.949219 Z M 261.90625 243.230469 L 266.714844 243.230469 L 266.714844 228.914062 L 261.90625 228.914062 Z M 253.273438 243.230469 L 257.773438 243.230469 L 257.773438 228.871094 L 253.273438 228.871094 Z M 244.335938 243.230469 L 249.144531 243.230469 L 249.144531 228.824219 L 244.335938 228.824219 Z M 235.390625 243.230469 L 240.199219 243.230469 L 240.199219 227.15625 L 237.59375 218.457031 L 235.390625 221.972656 Z M 226.453125 243.230469 L 231.265625 243.230469 L 231.265625 228.613281 L 226.453125 236.347656 Z M 217.871094 243.230469 L 222.300781 243.230469 L 222.300781 238.601562 L 217.847656 238.601562 Z M 208.925781 243.230469 L 213.742188 243.230469 L 213.742188 238.660156 L 208.925781 238.660156 Z M 199.988281 243.230469 L 204.796875 243.230469 L 204.796875 238.722656 L 199.988281 238.722656 Z M 191.046875 243.230469 L 195.863281 243.230469 L 195.863281 230.574219 C 193.753906 230.222656 192.207031 229.933594 191.046875 229.714844 Z M 182.109375 243.230469 L 186.917969 243.230469 L 186.917969 229.167969 C 185.90625 229.238281 184.695312 229.511719 182.109375 229.996094 Z M 173.855469 243.230469 L 178.003906 243.230469 L 178.003906 230.742188 L 177.363281 230.847656 L 175.816406 238.757812 L 173.875 238.757812 Z M 164.199219 243.230469 L 169.726562 243.230469 L 169.726562 238.714844 L 164.199219 238.679688 Z M 155.261719 243.230469 L 160.074219 243.230469 L 160.074219 238.652344 L 155.261719 238.652344 Z M 146.320312 243.230469 L 151.136719 243.230469 L 151.136719 238.597656 L 149.996094 238.597656 L 146.320312 232.710938 Z M 137.347656 243.230469 L 142.191406 243.230469 L 142.191406 226.082031 L 137.4375 218.457031 L 137.347656 218.769531 Z M 128.410156 243.230469 L 133.21875 243.230469 L 133.21875 228.789062 L 128.410156 228.789062 Z M 119.46875 243.230469 L 124.277344 243.230469 L 124.277344 228.828125 L 119.46875 228.828125 Z M 110.53125 243.230469 L 115.339844 243.230469 L 115.339844 228.878906 L 110.53125 228.878906 Z M 101.945312 243.230469 L 106.402344 243.230469 L 106.402344 228.929688 L 101.945312 228.929688 Z M 93 243.230469 L 97.816406 243.230469 L 97.816406 238.476562 L 93 230.355469 Z M 84.066406 243.230469 L 88.875 243.230469 L 88.875 223.429688 L 84.066406 215.308594 Z M 75.121094 243.230469 L 79.9375 243.230469 L 79.9375 214.0625 L 75.121094 225.3125 Z M 70.980469 231.164062 L 66.207031 231.164062 L 66.207031 243.222656 L 71.015625 243.222656 Z M 70.980469 231.164062 " fill-opacity="1" fill-rule="evenodd"/></g><g fill="#f5f5f1" fill-opacity="1"><g transform="translate(73.796197, 203.502807)"><g><path d="M 4.96875 -68.328125 L 29.40625 -68.328125 C 35.976562 -68.328125 41.332031 -66.570312 45.46875 -63.0625 C 49.613281 -59.5625 51.6875 -54.554688 51.6875 -48.046875 C 51.6875 -43.015625 50.425781 -38.800781 47.90625 -35.40625 C 45.394531 -32.007812 41.988281 -29.625 37.6875 -28.25 L 61.203125 0 L 41.40625 0 L 20.546875 -27 L 20.546875 0 L 4.96875 0 Z M 20.546875 -38.015625 L 22.359375 -38.015625 C 23.796875 -38.015625 25.007812 -38.039062 26 -38.09375 C 27 -38.15625 28.132812 -38.347656 29.40625 -38.671875 C 30.675781 -39.003906 31.695312 -39.472656 32.46875 -40.078125 C 33.238281 -40.691406 33.898438 -41.578125 34.453125 -42.734375 C 35.003906 -43.898438 35.28125 -45.3125 35.28125 -46.96875 C 35.28125 -48.625 35.003906 -50.03125 34.453125 -51.1875 C 33.898438 -52.34375 33.238281 -53.222656 32.46875 -53.828125 C 31.695312 -54.441406 30.675781 -54.914062 29.40625 -55.25 C 28.132812 -55.582031 27 -55.773438 26 -55.828125 C 25.007812 -55.878906 23.796875 -55.90625 22.359375 -55.90625 L 20.546875 -55.90625 Z M 20.546875 -38.015625 "/></g></g></g><g fill="#f5f5f1" fill-opacity="1"><g transform="translate(125.303074, 203.502807)"><g><path d="M 44.484375 -68.328125 L 44.484375 -54.671875 L 20.546875 -54.671875 L 20.546875 -41.078125 L 42.65625 -41.078125 L 42.65625 -27.421875 L 20.546875 -27.421875 L 20.546875 0 L 4.96875 0 L 4.96875 -68.328125 Z M 44.484375 -68.328125 "/></g></g></g><g fill="#f5f5f1" fill-opacity="1"><g transform="translate(164.470942, 203.502807)"><g><path d="M 14.40625 -17.71875 C 17.0625 -17.71875 19.3125 -16.789062 21.15625 -14.9375 C 23.007812 -13.09375 23.9375 -10.847656 23.9375 -8.203125 C 23.9375 -5.609375 23.007812 -3.382812 21.15625 -1.53125 C 19.3125 0.320312 17.0625 1.25 14.40625 1.25 C 11.8125 1.25 9.585938 0.320312 7.734375 -1.53125 C 5.890625 -3.382812 4.96875 -5.609375 4.96875 -8.203125 C 4.96875 -10.847656 5.890625 -13.09375 7.734375 -14.9375 C 9.585938 -16.789062 11.8125 -17.71875 14.40625 -17.71875 Z M 14.40625 -17.71875 "/></g></g></g><g fill="#f5f5f1" fill-opacity="1"><g transform="translate(185.585769, 203.502807)"><g><path d="M 66.765625 -38.265625 L 66.765625 -23.4375 C 64.992188 -15.320312 61.125 -9.175781 55.15625 -5 C 49.195312 -0.832031 42.546875 1.25 35.203125 1.25 C 25.984375 1.25 18.128906 -2.203125 11.640625 -9.109375 C 5.148438 -16.015625 1.90625 -24.351562 1.90625 -34.125 C 1.90625 -44.0625 5.078125 -52.453125 11.421875 -59.296875 C 17.773438 -66.148438 25.703125 -69.578125 35.203125 -69.578125 C 46.296875 -69.578125 55.078125 -65.679688 61.546875 -57.890625 L 51.359375 -46.71875 C 47.710938 -52.570312 42.628906 -55.5 36.109375 -55.5 C 31.304688 -55.5 27.207031 -53.410156 23.8125 -49.234375 C 20.414062 -45.066406 18.71875 -40.03125 18.71875 -34.125 C 18.71875 -28.320312 20.414062 -23.363281 23.8125 -19.25 C 27.207031 -15.144531 31.304688 -13.09375 36.109375 -13.09375 C 40.085938 -13.09375 43.550781 -14.289062 46.5 -16.6875 C 49.457031 -19.09375 50.9375 -22.28125 50.9375 -26.25 L 35.203125 -26.25 L 35.203125 -38.265625 Z M 66.765625 -38.265625 "/></g></g></g><g fill="#f5f5f1" fill-opacity="1"><g transform="translate(246.450416, 203.502807)"><g><path d="M 8.984375 -5.046875 C 4.265625 -9.242188 1.90625 -14.628906 1.90625 -21.203125 C 1.90625 -27.773438 4.359375 -33.171875 9.265625 -37.390625 C 14.179688 -41.617188 20.257812 -43.734375 27.5 -43.734375 C 34.625 -43.734375 40.628906 -41.609375 45.515625 -37.359375 C 50.398438 -33.109375 52.84375 -27.722656 52.84375 -21.203125 C 52.84375 -14.691406 50.453125 -9.320312 45.671875 -5.09375 C 40.898438 -0.863281 34.84375 1.25 27.5 1.25 C 19.875 1.25 13.703125 -0.847656 8.984375 -5.046875 Z M 20.328125 -28.40625 C 18.429688 -26.53125 17.484375 -24.128906 17.484375 -21.203125 C 17.484375 -18.273438 18.390625 -15.882812 20.203125 -14.03125 C 22.023438 -12.1875 24.429688 -11.265625 27.421875 -11.265625 C 30.285156 -11.265625 32.640625 -12.203125 34.484375 -14.078125 C 36.335938 -15.953125 37.265625 -18.328125 37.265625 -21.203125 C 37.265625 -24.128906 36.3125 -26.53125 34.40625 -28.40625 C 32.507812 -30.28125 30.179688 -31.21875 27.421875 -31.21875 C 24.597656 -31.21875 22.234375 -30.28125 20.328125 -28.40625 Z M 20.328125 -28.40625 "/></g></g></g></svg>